# xmcd
#
# Track frame offsets: 
#        150
#        10666
#        20799
#        26106
#        32895
#        38379
#        49042
#        57062
#        68227
#        75620
#        88211
#        102174
#        107546
#        118897
#        128605
#        138587
#
# Disc length: 2024 seconds
#
# Revision: 0
# Processed by: cddbd v1.5.2PL0 Copyright (c) Steve Scherf et al.
# Submitted via: ExactAudioCopy v1.3
#
DISCID=ce07e610
DTITLE=The Dry Branch String Band - The Dry Branch String Band
DYEAR=1974
DGENRE=Bluegrass
TTITLE0=Old Bill Cheathum
TTITLE1=Handsome Molly
TTITLE2=Billy In The Low Ground
TTITLE3=Cumberland Gap
TTITLE4=Turkey In The Straw - Redwing
TTITLE5=Wreck Of The 97
TTITLE6=Ragtime Annie
TTITLE7=Black Jack Davy
TTITLE8=Sally Ann
TTITLE9=Soldier's Joy
TTITLE10=Bonaparte's Retreat
TTITLE11=Cripple Creek
TTITLE12=Down By The Willow Garden
TTITLE13=Boil Them Cabbage Down
TTITLE14=Mississippi Sawyer
TTITLE15=Arkansas Traveler
EXTD=
EXTT0=
EXTT1=
EXTT2=
EXTT3=
EXTT4=
EXTT5=
EXTT6=
EXTT7=
EXTT8=
EXTT9=
EXTT10=
EXTT11=
EXTT12=
EXTT13=
EXTT14=
EXTT15=
PLAYORDER=
